Patient4_TMGait_0pt6_01_right_20_GRF.mot
version=1
nRows=58
nColumns=19
inDegrees=no
endheader
time	F1x	F1y	F1z	M1x	M1y	M1z	F2x	F2y	F2z	M2x	M2y	M2z	EC1x	EC1y	EC1z	EC2x	EC2y	EC2z
23.71	-9.386	768.4567	71.6884	-272.1178	-70.5052	721.5846	3.4136	-2.22	-5.1657	0.1439	5.2647	-5.7277	-0.0592	0.0182	-0.0073	-0.0462	0.0165	0.9585
23.7223	-4.8474	761.6706	67.8443	-269.6962	-64.2972	713.8882	2.0114	-0.57557	-3.4497	0.44936	3.6069	-2.8203	-0.0592	0.0182	-0.0073	-0.0462	0.0165	0.9585
23.7346	-0.51152	754.995	64.3495	-267.3185	-58.5568	705.528	0.86588	0.81764	-2.0455	0.71775	2.2507	-0.373	-0.0592	0.0182	-0.0073	-0.0462	0.0165	0.9585
23.7469	3.4332	749.0029	61.4024	-265.1914	-53.5797	697.0859	0.021225	1.8934	-1.0024	0.9359	1.2447	1.4951	-0.0592	0.0182	-0.0073	-0.0462	0.0165	0.9585
23.7591	6.9393	744.0289	59.1126	-263.4287	-49.4879	689.019	-0.5489	2.6607	-0.31202	1.1023	0.58284	2.8081	-0.0592	0.0182	-0.0073	-0.0462	0.0165	0.9585
23.7714	10.0772	740.1775	57.476	-262.0547	-46.2385	681.5761	-0.89344	3.151	0.095998	1.218	0.19896	3.6273	-0.0592	0.0182	-0.0073	-0.0462	0.0165	0.9585
23.7837	12.939	737.3533	56.4758	-261.016	-43.7602	674.8242	-1.0861	3.4131	0.28446	1.2848	0.034179	4.057	-0.0592	0.0182	-0.0073	-0.0462	0.0165	0.9585
23.796	15.6398	735.3458	56.0282	-260.2213	-41.9095	668.7047	-1.1647	3.4607	0.32556	1.2936	0.0087872	4.1427	-0.0592	0.0182	-0.0073	-0.0462	0.0165	0.9585
23.8083	18.2908	733.9435	56.0517	-259.5785	-40.5491	663.1299	-1.1889	3.2875	0.27629	1.2276	0.070748	3.9247	-0.0592	0.0182	-0.0073	-0.0462	0.0165	0.9585
23.8206	20.9897	732.9765	56.4469	-259.0117	-39.5334	658.014	-1.1623	2.8399	0.18182	1.056	0.17253	3.3671	-0.0592	0.0182	-0.0073	-0.0462	0.0165	0.9585
23.8329	23.8156	732.377	57.1517	-258.4789	-38.7649	653.3576	-1.1163	2.0483	0.075002	0.74251	0.28355	2.4295	-0.0592	0.0182	-0.0073	-0.0462	0.0165	0.9585
23.8451	26.7943	732.1719	58.115	-257.9737	-38.1757	649.2421	-1.0385	0.81197	-0.025914	0.24687	0.37396	1.0144	-0.0592	0.0182	-0.0073	-0.0462	0.0165	0.9585
23.8574	29.8922	732.4282	59.3215	-257.5052	-37.751	645.7684	-0.92885	-0.92922	-0.10459	-0.45579	0.4195	-0.92292	-0.0592	0.0182	-0.0073	-0.0462	0.0165	0.9585
23.8697	33.0367	733.2059	60.7472	-257.0848	-37.4872	643.0052	-0.75677	-3.1799	-0.14843	-1.3639	0.39261	-3.3954	-0.0592	0.0182	-0.0073	-0.0462	0.0165	0.9585
23.882	36.1425	734.4672	62.3645	-256.701	-37.389	640.9145	-0.5104	-5.8027	-0.13002	-2.4203	0.25963	-6.2545	-0.0592	0.0182	-0.0073	-0.0462	0.0165	0.9585
23.8943	39.1261	736.0699	64.12	-256.3167	-37.4387	639.3458	-0.16006	-8.457	-0.022531	-3.4824	-0.016889	-9.1385	-0.0592	0.0182	-0.0073	-0.0462	0.0165	0.9585
23.9066	41.9211	737.7831	65.9482	-255.8706	-37.6085	638.0722	0.297	-10.4907	0.21021	-4.282	-0.47815	-11.3402	-0.0592	0.0182	-0.0073	-0.0462	0.0165	0.9585
23.9189	44.5171	739.2966	67.7616	-255.2798	-37.8426	636.7924	0.84926	-10.8411	0.60695	-4.387	-1.1565	-11.7122	-0.0592	0.0182	-0.0073	-0.0462	0.0165	0.9585
23.9311	46.9195	740.2276	69.4734	-254.4381	-38.0796	635.1458	1.4471	-7.9663	1.2028	-3.1752	-2.0567	-8.5851	-0.0592	0.0182	-0.0073	-0.0462	0.0165	0.9585
23.9434	49.1856	740.1298	70.9753	-253.2263	-38.2188	632.7243	1.9701	0.15941	2.0158	0.16665	-3.1338	0.26401	-0.0592	0.0182	-0.0073	-0.0462	0.0165	0.9585
23.9557	51.3925	738.4978	72.1366	-251.5121	-38.1312	629.0849	2.2172	15.9281	3.0257	6.5929	-4.2676	17.4698	-0.0592	0.0182	-0.0073	-0.0462	0.0165	0.9585
23.968	53.6278	734.7009	72.7839	-249.1288	-37.6523	623.6747	1.8626	41.7809	4.1433	17.0694	-5.2158	45.7382	-0.0592	0.0182	-0.0073	-0.0462	0.0165	0.9585
23.9803	55.9252	727.8582	72.7249	-245.8275	-36.6222	615.7507	0.49318	79.5933	5.1594	32.3272	-5.5674	87.1524	-0.0592	0.0182	-0.0073	-0.0462	0.0165	0.9585
23.9926	58.2439	716.7303	71.7433	-241.2351	-34.89	604.2855	-2.4241	129.7691	5.7176	52.4879	-4.7128	142.2004	-0.0592	0.0182	-0.0073	-0.0462	0.0165	0.9585
24.0049	60.3913	699.6558	69.6349	-234.827	-32.3671	587.9395	-7.5241	189.974	5.3446	76.56	-1.8943	208.3624	-0.0592	0.0182	-0.0073	-0.0462	0.0165	0.9585
24.0171	61.9991	674.7129	66.2062	-225.9771	-29.0333	565.2	-15.0739	254.0482	3.5286	102.023	3.4971	278.9065	-0.0592	0.0182	-0.0073	-0.0462	0.0165	0.9585
24.0294	62.6103	640.1927	61.3795	-214.1148	-24.998	534.7491	-24.2178	313.8106	-0.21659	125.5953	11.5424	344.7725	-0.0592	0.0182	-0.0073	-0.0462	0.0165	0.9585
24.0417	61.7634	595.33	55.28	-198.9597	-20.531	496.0555	-33.7632	364.628	-5.5198	145.4214	21.3177	400.7282	-0.0592	0.0182	-0.0073	-0.0462	0.0165	0.9585
24.054	59.1329	540.6678	48.303	-180.646	-16.0528	449.6269	-42.7164	406.5583	-11.7369	161.5348	31.7431	446.6588	-0.0592	0.0182	-0.0073	-0.0462	0.0165	0.9585
24.0663	54.6391	478.0002	41.0007	-159.7164	-12.0128	396.9634	-50.3916	442.1987	-18.1732	175.0119	41.8024	485.2788	-0.0592	0.0182	-0.0073	-0.0462	0.0165	0.9585
24.0786	48.3776	410.139	33.8412	-137.0629	-8.7249	340.3541	-56.4163	475.0096	-24.1938	187.2737	50.694	520.2485	-0.0592	0.0182	-0.0073	-0.0462	0.0165	0.9585
24.0909	40.5922	340.5538	27.1738	-113.8164	-6.3641	282.6073	-60.706	507.8618	-29.4757	199.5005	58.0468	554.6257	-0.0592	0.0182	-0.0073	-0.0462	0.0165	0.9585
24.1031	31.7385	272.9422	21.2088	-91.2065	-4.9266	226.6976	-63.3378	542.4993	-33.9146	212.4022	63.8039	590.2527	-0.0592	0.0182	-0.0073	-0.0462	0.0165	0.9585
24.1154	22.4786	210.7142	16.0756	-70.3818	-4.2795	175.3584	-64.5714	579.4068	-37.7728	226.1583	68.3471	627.6796	-0.0592	0.0182	-0.0073	-0.0462	0.0165	0.9585
24.1277	13.6247	156.4335	11.8416	-52.2109	-4.1849	130.6019	-64.7262	617.8151	-41.3361	240.4479	72.1083	666.1593	-0.0592	0.0182	-0.0073	-0.0462	0.0165	0.9585
24.14	5.9187	111.3941	8.5299	-37.1331	-4.3958	93.4387	-64.1588	656.0905	-44.8832	254.6107	75.512	704.0736	-0.0592	0.0182	-0.0073	-0.0462	0.0165	0.9585
24.1523	-0.14138	75.6189	6.0371	-25.1668	-4.6514	63.8478	-63.2503	692.2487	-48.4276	267.8652	78.7228	739.4395	-0.0592	0.0182	-0.0073	-0.0462	0.0165	0.9585
24.1646	-4.3813	48.3053	4.195	-16.0464	-4.7588	41.1833	-62.3114	724.4832	-51.9261	279.5132	81.8052	770.4625	-0.0592	0.0182	-0.0073	-0.0462	0.0165	0.9585
24.1769	-6.7853	28.2464	2.8193	-9.3671	-4.572	24.4568	-61.5043	751.5642	-55.1413	289.0949	84.5763	795.9356	-0.0592	0.0182	-0.0073	-0.0462	0.0165	0.9585
24.1891	-7.5091	14.1668	1.7613	-4.6956	-4.0311	12.6521	-60.8662	772.79	-57.926	296.3603	86.8894	815.1949	-0.0592	0.0182	-0.0073	-0.0462	0.0165	0.9585
24.2014	-6.8939	4.8906	0.95457	-1.6332	-3.2085	4.804	-60.3739	787.8496	-60.1503	301.2098	88.5981	827.9644	-0.0592	0.0182	-0.0073	-0.0462	0.0165	0.9585
24.2137	-5.5768	-0.57157	0.38087	0.15978	-2.3107	0.12019	-59.9189	796.7477	-61.794	303.6588	89.6359	834.2777	-0.0592	0.0182	-0.0073	-0.0462	0.0165	0.9585
24.226	-4.0599	-3.2231	0.029309	1.0208	-1.5071	-2.2182	-59.3807	799.7924	-62.8386	303.8375	89.9425	834.4743	-0.0592	0.0182	-0.0073	-0.0462	0.0165	0.9585
24.2383	-2.6563	-3.9786	-0.16474	1.2571	-0.85606	-2.9557	-58.635	797.5772	-63.3641	301.9817	89.565	829.1611	-0.0592	0.0182	-0.0073	-0.0462	0.0165	0.9585
24.2506	-1.5087	-3.6106	-0.23573	1.1269	-0.38536	-2.7345	-57.5975	791.0005	-63.4551	298.4422	88.5765	819.2552	-0.0592	0.0182	-0.0073	-0.0462	0.0165	0.9585
24.2629	-0.66044	-2.6688	-0.24346	0.81096	-0.065769	-2.0069	-56.192	781.1578	-63.2589	293.6478	87.1187	805.8444	-0.0592	0.0182	-0.0073	-0.0462	0.0165	0.9585
24.2751	-0.090773	-1.5377	-0.19879	0.43219	0.10963	-1.0885	-54.396	769.2797	-62.872	288.0852	85.3018	790.135	-0.0592	0.0182	-0.0073	-0.0462	0.0165	0.9585
24.2874	0.25504	-0.46236	-0.14543	0.067533	0.19223	-0.17992	-52.2054	756.6453	-62.3842	282.2647	83.236	773.3623	-0.0592	0.0182	-0.0073	-0.0462	0.0165	0.9585
24.2997	0.44139	0.45359	-0.083832	-0.24631	0.20372	0.62138	-49.6575	744.5063	-61.8166	276.6922	80.9776	756.7352	-0.0592	0.0182	-0.0073	-0.0462	0.0165	0.9585
24.312	0.51904	1.1743	-0.040014	-0.49551	0.18934	1.2666	-46.8315	733.9739	-61.1984	271.8252	78.6036	741.3326	-0.0592	0.0182	-0.0073	-0.0462	0.0165	0.9585
24.3243	0.51814	1.706	-0.0047812	-0.68086	0.15576	1.7551	-43.8242	725.9463	-60.5144	268.0441	76.1526	728.0191	-0.0592	0.0182	-0.0073	-0.0462	0.0165	0.9585
24.3366	0.47473	2.0797	0.016537	-0.8129	0.11968	2.1086	-40.7193	721.0652	-59.7463	265.6303	73.6488	717.3998	-0.0592	0.0182	-0.0073	-0.0462	0.0165	0.9585
24.3489	0.38956	2.3077	0.034711	-0.89467	0.071244	2.3336	-37.553	719.7029	-58.8337	264.7533	71.0491	709.7978	-0.0592	0.0182	-0.0073	-0.0462	0.0165	0.9585
24.3611	0.28119	2.4045	0.044023	-0.92933	0.017629	2.4244	-34.3113	721.9177	-57.7488	265.4418	68.3204	705.2271	-0.0592	0.0182	-0.0073	-0.0462	0.0165	0.9585
24.3734	0.14041	2.3655	0.053988	-0.91218	-0.055291	2.3787	-30.9331	727.3411	-56.4817	267.5469	65.4262	703.298	-0.0592	0.0182	-0.0073	-0.0462	0.0165	0.9585
24.3857	-0.02908	2.1507	0.066586	-0.82867	-0.15045	2.1491	-27.3351	735.1789	-55.0615	270.7408	62.3551	703.2624	-0.0592	0.0182	-0.0073	-0.0462	0.0165	0.9585
24.398	-0.24447	1.7197	0.092438	-0.65883	-0.2804	1.6936	-23.416	744.2517	-53.549	274.539	59.1134	704.0532	-0.0592	0.0182	-0.0073	-0.0462	0.0165	0.9585
24.4103	-0.48748	1.0039	0.12513	-0.37387	-0.43261	0.92959	-19.1118	753.1417	-52.0264	278.359	55.7308	704.4268	-0.0592	0.0182	-0.0073	-0.0462	0.0165	0.9585
